<?xml version="1.0" encoding="utf-8"?>
<!-- Generator: Adobe Illustrator 16.0.0, SVG Export Plug-In . SVG Version: 6.00 Build 0)  -->
<!DOCTYPE svg PUBLIC "-//W3C//DTD SVG 1.1//EN" "http://www.w3.org/Graphics/SVG/1.1/DTD/svg11.dtd">
<svg version="1.1" id="Layer_1" xmlns="http://www.w3.org/2000/svg" xmlns:xlink="http://www.w3.org/1999/xlink" x="0px" y="0px"
	 width="156px" height="30px" viewBox="0 0 156 30" enable-background="new 0 0 156 30" xml:space="preserve">
<g>
	<path fill="#FAFCFB" d="M19.406,3.521c-9.92,0-17.958,4.007-17.958,8.941c0,4.944,8.039,8.949,17.958,8.949
		c9.914,0,17.956-4.005,17.956-8.949C37.361,7.527,29.319,3.521,19.406,3.521z M17.668,18.779c-6.613,0-11.976-2.891-11.976-6.45
		c0-3.569,5.362-6.45,11.976-6.45c6.612,0,11.969,2.881,11.969,6.45C29.637,15.889,24.28,18.779,17.668,18.779z"/>
	<path fill="#FAFCFB" d="M136.568,3.521c-9.924,0-17.959,4.007-17.959,8.941c0,4.944,8.035,8.949,17.959,8.949
		c9.91,0,17.949-4.005,17.949-8.949C154.518,7.527,146.479,3.521,136.568,3.521z M134.824,18.779c-6.613,0-11.977-2.891-11.977-6.45
		c0-3.569,5.362-6.45,11.977-6.45c6.613,0,11.973,2.881,11.973,6.45C146.797,15.889,141.438,18.779,134.824,18.779z"/>
	<path fill="#FAFCFB" d="M58.893,3.521c-3.065,0-5.946,0.388-8.473,1.058v2.419c1.919-0.702,4.239-1.119,6.738-1.119
		c6.611,0,11.97,2.881,11.97,6.45c0,3.56-5.359,6.45-11.97,6.45c-4.665,0-8.694-1.439-10.675-3.529V4.05h-6.475v23.796h6.475
		l0.001-8.921c3.223,1.531,7.595,2.484,12.41,2.484c9.917,0,17.952-4.005,17.952-8.949C76.845,7.527,68.81,3.521,58.893,3.521z"/>
	<path fill="#FAFCFB" d="M98.411,3.521c-3.063,0-5.947,0.388-8.472,1.058v2.419c1.918-0.702,4.235-1.119,6.733-1.119
		c6.613,0,11.974,2.881,11.974,6.45c0,3.56-5.359,6.45-11.974,6.45c-4.664,0-8.692-1.439-10.674-3.529V4.05h-6.476v23.796H86
		l0.004-8.921c3.223,1.531,7.588,2.484,12.407,2.484c9.915,0,17.955-4.005,17.955-8.949C116.366,7.527,108.326,3.521,98.411,3.521z"
		/>
</g>
</svg>
